<svg version="1.0" xmlns="http://www.w3.org/2000/svg" width="682.667" height="682.667" viewBox="0 0 512 512"><path d="M103.7 28.6c-33.5 6-61.4 32-70.9 65.9-2.2 7.9-2.2 9.2-2.6 73.2l-.3 65.3-7.7 7.8C14.1 249 9.4 256 5.3 266 .1 279-.1 281.9.2 356.2L.5 425l2.8 2.7c2.6 2.7 3.2 2.8 14.7 3.1l11.9.4.3 23.9.3 23.9 2.8 2.7 2.7 2.8 30.5.3 30.4.3 3.3-3 3.3-2.9.3-24.1.3-24.1h303.8l.3 24 .3 24 2.8 2.7 2.7 2.8 30.5.3 30.4.3 3.3-3 3.3-2.9.3-24.1.3-24.1h11.4c11.3 0 11.5-.1 14.7-2.9l3.3-2.9.3-68.8c.3-74.5.1-77.4-5.1-90.4-4.1-10-8.8-17-16.9-25.2l-7.7-7.8-.3-65.3c-.4-64-.4-65.3-2.6-73.2-8.8-31.4-33.3-55.9-64.7-64.7-7.8-2.2-9.7-2.2-62.9-2.6-57.8-.3-59.1-.2-62.1 4.2-1.7 2.4-2 7.9-.5 10.7 2.6 4.8 3.4 4.9 58 4.9 58.5 0 60.4.2 76 7.7 8.1 3.9 10.8 5.8 18.2 13.3 7.2 7.2 9.4 10.3 13.1 18.1 7.6 15.6 7.7 16.9 7.7 80.9 0 54.3-.1 56.1-1.9 55.5-4.7-1.5-16-3.5-19.8-3.5H436v-30c0-31.6-.6-37.2-4.6-45.1-3-5.9-10.3-13.3-16.3-16.4-8.8-4.4-12.8-4.6-77.6-4.3-60.8.3-61 .3-66.6 2.6-3.1 1.2-7.7 3.9-10.3 5.9l-4.6 3.6-4.6-3.6c-2.6-2-7.2-4.7-10.3-5.9-5.6-2.3-5.8-2.3-66.6-2.6-43.1-.2-62.8 0-67 .8-15.4 3-27.1 14.5-30.4 29.8-.7 3.2-1.1 16.9-1.1 35.2v30h-4.2c-3.9 0-15.2 2-19.9 3.5-1.8.6-1.9-1.2-1.9-55.5 0-64.1.1-65.3 7.7-81 3.8-7.9 5.9-10.8 13.2-18.1 7.3-7.3 10.2-9.4 18.1-13.2 15.6-7.5 17.4-7.7 77-7.7 55.7 0 56.4-.1 59-4.9 1.3-2.5 1.3-7.7 0-10.2-2.7-4.9-3.2-4.9-60.2-4.8-41.1.1-55.1.4-61.1 1.5zm133.4 117.3c2 1.4 4.7 4.1 6 6 2.4 3.4 2.4 3.6 2.7 35.3l.3 31.8H95.9l.3-31.8.3-31.9 2.5-3.5c2.3-3.5 6.5-6.6 10.5-8 1.1-.3 29.5-.6 63-.5l61 .2 3.6 2.4zm170 0c2 1.4 4.7 4.1 6 6 2.4 3.4 2.4 3.6 2.7 35.3l.3 31.8H265.9l.3-31.8.3-31.9 2.5-3.5c2.3-3.5 6.5-6.6 10.5-8 1.1-.3 29.5-.6 63-.5l61 .2 3.6 2.4zm44.5 95.1c9.6 2.5 16.9 6.7 24.3 14.1 7.4 7.4 11.6 14.7 14.1 24.3 1.8 7.3 2 11.1 2 45.8V363H291c-218.8 0-205.1-.4-207.8 5.5-1.5 3.3-1.5 5.7 0 9 2.7 5.9-11 5.5 207.8 5.5h201v28H20v-61.8c0-58.8.1-62.3 2-69.8 2.5-9.6 6.7-16.9 14.1-24.3 7.3-7.3 14.7-11.6 23.9-14 7.3-1.9 12.2-2 195.6-2 185.5-.1 188.2-.1 196 1.9zM84 448v17H50v-34h34v17zm378 0v17h-34v-34h34v17z"/><path d="M48.5 363.9c-8.9 3.7-7.4 16.9 2.1 18.7 5.6 1 11.4-3.9 11.4-9.6 0-6.9-7.1-11.7-13.5-9.1zM252.5 27.9c-3.7 1.6-6 5.1-6 9.3 0 3.3.6 4.5 3.3 6.9 2 1.8 4.3 2.9 6.2 2.9 1.9 0 4.2-1.1 6.2-2.9 2.7-2.4 3.3-3.6 3.3-7 0-6.7-7.1-11.7-13-9.2z"/></svg>