<svg version="1.0" xmlns="http://www.w3.org/2000/svg" width="682.667" height="682.667" viewBox="0 0 512 512"><path d="M2.5 2.5C1.1 3.8 0 6.1 0 7.5s1.1 3.7 2.5 5L4.9 15h131.3c111.4 0 132.4.3 138.3 1.5 9.3 2 21.7 8.2 28.5 14.4l5.5 5-152.2.1H4.1l-2 2.6c-2.6 3.3-2.7 6.5-.2 9.5l1.9 2.4 180.4.5c171.9.5 180.6.6 185.8 2.3 18.5 6.3 32.2 17.9 41.1 34.9 2.2 4.3 4.8 8.2 5.9 8.8 1.1.6 9.8 1 20.2 1 20.2 0 23.5.8 29 6.6 8.3 8.9 22.7 51.7 29.4 87.7 1.6 9.1 1.7 9.9.1 13.2-1.5 3.2-7.7 7.7-7.7 5.6 0-2.6-5.4-30-8.1-40.6-4.1-16.7-12.7-42.6-16.9-51-3.1-6.1-4.1-7.2-8.9-9.7l-5.3-2.8h-30.7c-35 0-36.7.4-41.7 7.9-4.3 6.5-4.2 10.9.4 23.1 14.6 38.9 25.9 92.2 33.2 155.9 1.1 9.6 1.9 17.6 1.7 17.7-.2.2-5-1.1-10.7-3l-10.5-3.2.3-3.5c1.1-15-8.7-75.4-18.2-112.4-9.8-37.7-13.9-46.8-27.6-60.6-7.2-7.2-10.2-9.4-18.1-13.3-12.1-5.9-18.7-7.6-32.9-8.3-10.8-.5-11.7-.4-14.2 1.7-3.8 2.9-3.7 7 .1 10.3 2.5 2.1 4.2 2.5 13.9 3 17.9.9 29.6 5.9 41.2 17.6 10.9 11 15.3 21.7 25 61.1 8.6 34.8 17.9 95.5 15.1 98.3-.7.7-10.8-2-31.8-8.6-16.9-5.3-64-20-104.6-32.7-50.7-15.8-76.3-24.3-82-27.1-21.4-10.6-38.1-28.8-47-50.9-3.5-8.8-15.9-53.5-15.5-55.7.3-1.7 4.5-1.8 81.8-2 59.3-.2 82.1-.6 83.7-1.4 5-2.6 4.8-10.5-.4-12.8-3.1-1.4-163.2-1.6-168.2-.1-6.9 2-12.1 9-12.1 16.4 0 4.4 10.5 43.5 15.6 58 9.3 26.7 31.6 51 58.1 63.3 4.3 2 14.4 5.7 22.4 8.3l14.6 4.7 71.9 54.9c39.5 30.2 75.2 58.1 79.1 62 5.4 5.3 8.2 9.1 10.8 14.6 5.5 11.5 6.5 18.1 6.5 44V457h-98.8l-.5-14.8c-.4-12.1-.9-16.3-3.1-23.6-5.2-17.5-13.2-30.3-26.8-43.2-10-9.3-20.3-15.5-33.6-20-45.2-15.3-94.5 6.2-114.8 50.1-5.1 11.1-7.4 21.9-8.1 37.7l-.6 13.8H4.9l-2.4 2.5c-1.4 1.3-2.5 3.6-2.5 5s1.1 3.7 2.5 5l2.4 2.5h98.9l3.4 5.7c4 6.8 8 8.7 12.3 5.9 4.1-2.7 4.2-5.8.2-14.4-4.9-10.5-6-15.3-6-24.8.1-14.7 5.1-26.4 15.7-36.9 6.4-6.3 15.7-11.6 23.6-13.4 7.6-1.8 21-1.3 28.2.9 18.8 5.8 33.1 22.8 36 42.8 2.3 15.8-3.2 32.1-14.8 43.7-14.5 14.5-36.2 19.2-55.1 11.9-8-3.1-11.6-3.3-14.3-.9-2.3 2.1-2.7 7.2-.8 9.8 2 2.5 11.8 6.4 20.9 8.3 21.6 4.4 43.9-2.5 59.9-18.6 4.4-4.4 8.9-10.1 10.8-13.8l3.3-6.2h232.4l5-2.4c5.5-2.5 11-8.1 13.1-13.2 1.1-2.7 1.4-13.4 1.4-54.7 0-60.1.4-57.5-9.6-67.4l-6.2-6.3-.7-7.2c-6.5-71-18.4-136.8-33.5-185.2-2.2-7-4-13-4-13.2 0-.2 4.9-.4 10.8-.4 9.1 0 11.1.3 12.4 1.7.9 1 3.6 7.4 6.1 14.3 8.2 22.6 13.9 44.6 17.7 68.4 2.3 14 3.5 16.6 8.5 19 12.8 6.1 31.5-8.2 31.5-24 0-8.8-9.5-48.9-16.2-68.4-5.3-15.4-12.8-32-16.7-36.8-1.7-2.2-5.2-5.4-7.8-7.1-7.6-5-12.8-6.1-30.2-6.1l-15.6-.1-3.4-6c-8.2-14.3-19.6-24.9-34.6-32.3-13.6-6.8-18.3-7.8-39.5-8.3l-18.5-.5-8-7.7c-10.2-9.8-19-16-29.6-21C276.3-.3 283.6 0 136.5 0H4.9L2.5 2.5zm411 133.7c8.5 26.8 17.3 64.6 23.4 100.8 4.9 29 11.6 86 10.2 86-1.1 0-17.6-5.5-18.7-6.2-.6-.4-1.4-4.5-1.8-9-4.9-59.3-18.7-127.7-34.2-170.6-2.5-6.8-4.3-13-4-13.8.4-1.1 2.9-1.4 10.5-1.4h10l4.6 14.2zM348 308c72.8 22.7 107.5 34 109.8 35.7 6.4 4.8 6.2 3.2 6.2 57.8v49.7l-2.9 2.9-2.9 2.9h-85l-.5-26.8c-.5-29.4-1-32.8-7.2-45.7-4.4-9.3-12-18.9-19.7-25.1-3.5-2.8-24.5-19-46.8-36-61.4-46.9-66-50.5-66-50.9 0-.5-9.2-3.3 115 35.5zm-162.2 60.1c10.8 2.7 23.9 9.9 32.3 17.7 17.6 16.3 25.9 35.6 25.9 60.3V457h-11.5v-11.8c-.1-20-5.7-33.6-19.9-47.8-13.3-13.3-28.1-19.4-47.1-19.4-18.9 0-33.8 6.1-47.1 19.4-13.6 13.7-19.8 29.1-19.6 48.8l.1 10.8H86.7l.6-13.3c.6-14.8 2.1-21.7 7.3-32.6 9.8-20.8 25.9-35.1 47.6-42.1 13.3-4.3 29.1-4.6 43.6-.9z"/><path d="M2.5 109.4c-3.2 3.2-3.2 7 0 10.1 2.3 2.4 2.9 2.5 16.5 2.5 15.3 0 19.7 1 22.4 5.2 2.1 3.3 22.6 75.6 22.6 79.9 0 2.2-.8 4.7-2.1 6.3-4.2 5.3-5.7 5.6-32.8 5.6h-25l-2 2.6c-2.8 3.5-2.6 6.9.4 9.9l2.4 2.5h24.9c28.2 0 32.1-.7 39-6.6 6.4-5.4 9.4-11.3 9.9-19.2.4-6.2-.4-9.7-10.5-44.8-6-20.9-11.9-39.8-13-42-2.5-4.8-6.3-8.5-12.2-11.5-4.1-2.2-6-2.4-21.2-2.7l-16.7-.4-2.6 2.6zM156 411.9c-9.5 3.1-16.9 9.7-21.3 18.9-2.4 5.2-2.9 7.6-2.9 13.5-.1 14 6.6 24.8 19 30.9 6 3 7.5 3.3 15.2 3.2 10.3-.1 15.7-2.2 22.9-8.9 7.2-6.7 10.6-14.8 10.6-25-.1-9.8-3.1-17.1-9.7-23.7-6.7-6.8-12.7-9.2-22.8-9.5-4.7-.1-9.6.1-11 .6zm19.6 16.6c4.5 2.7 9.4 10.6 9.4 15.4 0 15.8-17.1 25.2-30 16.7-7.4-4.9-10.7-16.6-6.7-24.1 1.9-3.7 6.4-8.1 9.7-9.4 4.9-1.9 13-1.3 17.6 1.4z"/></svg>