<svg version="1.0" xmlns="http://www.w3.org/2000/svg" width="682.667" height="682.667" viewBox="0 0 512 512"><path d="M105.5 2.1c-3.3 1.1-8.2 3.8-11 5.9-2.7 2.2-23 22-45.1 44.2-34.2 34.3-40.5 41.2-43 46.3l-2.9 6-.3 188C3 500.1 2.5 485.7 9.3 495.6c4.6 6.7 11.9 12.1 19.7 14.4 6.4 2 9.1 2 179 1.8l172.5-.3 6.2-2.9c6.9-3.1 14.8-10.7 18.1-17.2 3.9-7.7 5.6-24.2 3.1-29.8-2.3-5.1-10.3-5.5-12.8-.7-.6 1.1-1.1 4.9-1.1 8.6 0 10.3-1.6 15.1-6.9 20.6-3.1 3.1-6 5.1-8.7 5.8-3 .8-52.9 1-174.6.9l-170.5-.3-4.8-3c-3.6-2.2-5.7-4.5-7.7-8.4l-2.8-5.3V110.1l37.3-.3c33.3-.3 37.6-.5 41.2-2.1 4.6-2.1 9.7-6.7 12.8-11.7 2.1-3.4 2.2-4.6 2.7-42l.5-38.5 130.9-.3c92.5-.1 132.1.1 135 .9 5.7 1.5 12.9 9.1 14.4 15.2.8 3.2 1.2 20.4 1.2 56.6 0 50.8.1 52.2 2 54.1 3 3 8.3 2.7 10.9-.6 2.1-2.6 2.1-3.6 2.1-54.5 0-53.7-.3-58.6-4.2-66.3-3.3-6.5-11.2-14.1-18.1-17.2L380.5.5 246 .3C112.5.1 111.5.1 105.5 2.1zM95.4 89.7c-3.1 4.9-6 5.3-37.6 5.3H28.5l34-34 34-34 .3 30.1c.2 26.2 0 30.5-1.4 32.6z"/><path d="M165.9 54.3c-1.8 1.2-4.4 3.8-5.6 5.6-2.2 3.2-2.3 4.4-2.3 20.3 0 19.5.8 22.3 7.2 26.6 3.3 2.1 5.4 2.6 12.3 3 9.8.5 12.7 0 15.5-3 2.6-2.8 2.5-5.8 0-9.1-1.9-2.4-2.8-2.6-10.8-2.9l-8.7-.3-.3-13.8-.3-13.7h157.2l-.3 13.7-.3 13.8-54.9.3c-54.8.2-55 .2-57.3 2.4-3.8 3.5-2.9 8.9 1.8 11.3 2.4 1.3 11.4 1.5 56.7 1.5 37.5 0 54.9-.3 57.3-1.1 4.1-1.4 9.3-6.1 10.9-9.9.7-1.8 1-8.6.8-19.8-.3-18.6-.7-19.8-7.2-24.6-2.7-2.1-3.7-2.1-85.5-2.4l-82.8-.2-3.4 2.3zM390.2 166.7c-2.4.8-7.2 4.2-11.1 7.8-8 7.3-10.6 8.1-19.9 6.5-12.1-2.2-23.9 2.3-30.2 11.6-3.8 5.5-4.8 8.2-5.9 15.9-1.2 8.3-2.9 10.6-10.9 14.8-12.5 6.6-18.5 15.7-18.6 27.8 0 5.5.6 7.7 3.7 14.3 4.5 9.4 4.6 12.9.7 20.4-9.4 18.1-3.9 34.8 14.6 44 7.4 3.7 9.2 6.4 10.6 15 1.3 8.3 3.8 13.9 8.6 18.7 3.7 3.8 12.2 8.5 15.5 8.5 1.6 0 1.7 2.4 1.7 35.7 0 32.8.2 36.1 1.9 39.9 2.1 4.7 5 7 10.4 8.5 5.5 1.5 8.8.2 24.8-9.7 7.8-4.8 14.6-8.7 15.3-8.7.6 0 7.1 3.7 14.5 8.3 16.4 10.2 19.7 11.5 25.4 9.9 4.7-1.2 8.1-3.9 10.5-8.4 1.5-2.6 1.7-7.8 2-39.1l.3-36 4.3-1.2c5.4-1.4 12.2-6.5 15.8-11.7 2.7-4 3.6-7 5.8-17.6 1.3-6.6 3.8-9.3 12.2-13.3 6.1-2.9 10.5-7.2 14-13.9 1.8-3.4 2.3-5.9 2.3-12.8 0-7.8-.3-9.1-3.4-15-4.4-8.4-4.4-12.4 0-20.9 3.1-5.9 3.4-7.3 3.4-15 0-7.5-.3-9.1-2.9-13.7-3.7-6.7-6.8-9.6-14.7-13.7-7.4-3.8-10.5-7.8-11.4-14.4-1.7-12.5-7.3-21-16.8-25.6-7-3.4-12.3-4.1-20.1-2.6-8.9 1.7-11.7.8-18.4-5.7-7.8-7.6-13.7-10.3-22.7-10.2-3.8 0-8.9.7-11.3 1.6zm23.4 19.4c8.3 7.7 13.9 10.3 22.4 10.3 3.6 0 8.8-.3 11.5-.8 9.1-1.4 15.7 4.5 17 15.1 1.4 12.1 7.2 20 18.6 25.8 7.5 3.8 10 6.9 10.7 13.3.4 3.7-.1 5.6-3.4 11.9-3.5 6.8-3.8 8.2-3.8 15 .1 6.5.5 8.2 3.7 14.4 6.4 12.2 4.6 18.9-6.7 25-12.2 6.6-17.6 14-19.1 26.1-.9 7.5-3.5 11.5-9.2 14-4.2 1.8-5.1 1.9-10.4.8-11.7-2.5-22.4.7-30.4 9-5.1 5.3-8.4 7-13.5 7-5.3 0-7.4-1.1-13.7-7.5-7.2-7.3-14.2-10-23.8-9-11.4 1.2-15.5.9-18.3-1.2-4.5-3.3-6.3-6.7-7.2-13.6-1.7-11.9-7.3-19.8-17.4-24.7-7.1-3.3-8.9-5-11.1-10.4-2-4.6-1.4-7.9 2.9-16 2.7-5.3 3.1-6.9 3.1-14.1 0-7.1-.4-8.9-3.2-14.6-4.2-8.5-4.6-10.1-3.4-14.6 1.3-4.8 4.8-8.1 12.3-11.7 9.5-4.5 15.1-12.6 16.8-24.3.9-7 2.7-10.3 7.4-13.7 2.3-1.7 3.9-2 8.9-1.7 14.8.9 19.1.6 24.1-1.9 2.8-1.3 7-4.5 9.5-7.1 6-6 7.6-6.8 13.9-6.9 5.1 0 5.5.2 11.8 6.1zm-42.3 186.1c1.2.6 4.7 3.4 7.8 6.3 8.4 7.7 11.7 9 22.4 9 10.6 0 14.6-1.7 21.5-9 4.8-5 9.3-7.5 13.5-7.5h2.5v34.9c0 19.3-.3 35.2-.7 35.4-.5.3-7.5-3.7-15.8-8.8-15.7-9.8-20.6-11.6-25.9-9.5-1.6.6-9 4.9-16.6 9.5-7.5 4.7-14.2 8.5-14.8 8.5-.9 0-1.2-9.3-1.2-35v-35h2.6c1.4 0 3.5.5 4.7 1.2z"/><path d="M385.8 215.6c-11.9 2.8-26.1 12.1-33.7 21.9-9.2 11.9-13.4 24.2-13.4 39 0 17.5 5.7 31 18.8 44.1 8.8 8.9 17.7 14.1 29.5 17 8.9 2.2 25.1 1.5 34-1.5 19.1-6.5 33.7-21.7 40.6-42.1 2.5-7.3 2.6-27.1.2-34.5-7.3-22.5-23.8-38.6-45.3-44-7.3-1.9-23-1.8-30.7.1zm35.5 17.6c18.3 8.7 28.8 26.7 27.4 46.8-.7 9.6-3.7 17.5-9.5 25.3-16.8 22.1-49.3 25.1-69.7 6.5-12.1-11.1-17.4-25.5-15.4-42 2.1-17.3 15.6-33.3 32.7-38.9 4.4-1.5 8.1-1.8 16.2-1.6 9.8.2 11 .5 18.3 3.9zM61.1 184.6c-2.7 3.5-2.6 5.7.3 9.1l2.4 2.8 95.9.3c52.7.2 97.3 0 99.1-.3 6.6-1.2 9.5-8.2 5.2-12.5-2-2-3.3-2-101.4-2H63.1l-2 2.6zM63.3 235.2c-4.8 2.3-5.1 10.3-.4 12.7 1.3.8 32.9 1.1 100.4 1.1h98.4l2.1-2.3c3.1-3.3 2.9-8-.4-10.6-2.7-2.1-3-2.1-100.3-2-66.2 0-98.3.4-99.8 1.1zM62.7 288.1c-4.6 2.7-4 11.1 1 13 1.4.5 43.2.9 99.7.9 97 0 97.3 0 100-2.1 3.4-2.7 3.6-7.7.3-10.7l-2.3-2.2h-98.5c-66.9.1-99 .4-100.2 1.1zM61.1 342.6c-2.7 3.5-2.6 5.7.3 9.1l2.4 2.8h198.4l1.9-2.4c2.5-3 2.4-7.6-.1-10.1-2-2-3.3-2-101.4-2H63.1l-2 2.6zM62.7 418.1c-4.6 2.7-4.1 10.5.9 12.8 1.8.8 17.3 1.1 51.8 1.1 48.4 0 49.4 0 52-2.1 3.3-2.6 3.6-7.9.6-10.9-1.9-1.9-3.3-2-52.7-2-33.6.1-51.4.4-52.6 1.1z"/></svg>