<svg version="1.0" xmlns="http://www.w3.org/2000/svg" width="682.667" height="682.667" viewBox="0 0 512 512"><path d="M358.5 1.3c-10.9 3.6-21.5 13.3-26.8 24.4-4 8.6-4.5 18-2.4 44 1.8 21 3.3 25.8 11.1 34.1 3.4 3.6 4.6 5.7 4.6 8v3l-19.7.4c-17.7.3-20.3.5-24.4 2.4-6.9 3.2-12.8 9.1-16.1 15.9-2.8 6-2.8 6.1-2.8 25.7 0 18.5.1 19.9 2 21.8 2.5 2.5 7.1 2.6 10.1.1 2.3-1.9 2.4-2.4 2.9-21.4.6-22.3.9-23.3 9-27.5 4.2-2.1 5.6-2.2 25-2.2 18.6 0 20.8-.2 23.7-2 2.2-1.3 3.6-3.2 4.4-6 1.2-3.8 1.5-4.1 3.8-3.3 3.4 1 15.7 1 19.7 0 3-.8 3.2-.6 3.8 2.4.3 1.8 1.4 4.1 2.4 5.2 2 2.2 6.3-2.1-35 34.9L327 185.1V172c0-12.6-.1-13.2-2.5-15.5-3.3-3.4-7.7-3.3-10.4.1-2.1 2.6-2.1 3.4-2.1 69.1v66.4l-2.5 2.4c-2.9 3-6.4 3.2-9.8.5l-2.6-2.1-.3-42.5-.3-42.6-2.8-2.4c-3.4-2.9-5.6-3-9.1-.3l-2.6 2v88.1l2.7 4.9c4.5 8.4 14.5 13.2 23.7 11.5l3.4-.7.7 7.3c.3 4 .9 32.4 1.3 63l.7 55.6 2.3 2.4c2.1 2.3 2.2 3.2 2.2 18.7 0 16 0 16.3-2.6 19.7-3.7 4.8-5.3 9.9-5.4 16.9 0 7.5 2.3 12.4 7 14.8 3.1 1.6 6.1 1.7 26.7 1.5 22.2-.3 23.3-.4 25.4-2.4l2.1-2.2 3.6 2.5 3.6 2.4 23.8-.3 23.8-.3 3.1-3.1c3.7-3.7 5.1-9.1 4.3-16.4-.7-5.9-2.5-10.2-5.5-13.6-1.8-1.9-1.9-3.6-1.7-20.3l.3-18.3 13-3.3c14.6-3.7 27.1-8 39-13.3 18-8 18.2-8.7 14.4-39.7-1.2-9.7-2.7-18-3.5-19.2-2.7-4.3-9.1-4.2-12 .3-1.5 2.2-1.4 3.9.6 20.8 1.3 10.1 2 19 1.7 19.8-.8 2.2-23.7 11.3-38.4 15.4-25 6.8-32.5 7.6-75 8.1l-38.3.5V326.9l6.3-2.7c23-9.7 50-25.4 70.5-40.9 6.7-5.1 12.5-9.3 12.7-9.3.3 0 .5 10.3.5 22.9v23l2.6 2c3.6 2.8 6 2.6 9.5-.8l2.9-2.9v-29.4l.1-29.3 13-13.3c7.2-7.4 13.2-13.2 13.3-13 .2.1 3.1 23.2 6.5 51.3 5.6 46.4 6.4 51.1 8.4 53.3 2.9 3.1 8.2 2.7 10.9-.8 1.8-2.5 1.8-3.2-5.2-60.5-3.9-31.9-6.9-59.6-6.7-61.5.4-2.9-6-61.4-7.9-73-.9-5.1-5-13-9.1-17.1-1.9-2-6-4.9-9.1-6.5-5.6-2.8-5.9-2.9-26.4-3.2l-20.8-.4v-3c0-2.1 1.2-4.4 4.1-7.6 8.6-9.8 9.9-14.7 12-44.9.9-13.5.9-18.5-.1-23.5-2.6-13.4-11.8-25.6-24.1-31.9-6.1-3.1-7-3.3-18.4-3.6-7.9-.2-13.4.2-16 1zm28 16.2c6.8 3.3 12.8 10.4 15 17.7.8 2.9 1.5 5.8 1.5 6.6 0 2.4-2.9-.6-6.2-6.5-3.7-6.5-7.1-9.3-11.2-9.3-4.5.1-7 1.8-11.3 8-7.3 10.4-17 14.3-26.8 10.6-5.1-2-5.5-3.3-2.9-10.9 2.7-8.1 11-15.7 20.4-18.8 4.9-1.6 15.6-.3 21.5 2.6zm3.5 33.8c2.7 2.9 6.4 6.2 8.4 7.2l3.6 2-.6 8c-1.3 18.7-3.6 23.8-13.5 30.7-12.7 8.7-23.5 7.3-35.2-4.4-6.2-6.3-7.3-9.3-8.2-23.8l-.7-10.5h9.9c9 0 10.4-.3 16.3-3.2 3.6-1.8 8.3-5 10.5-7.2 2.1-2.3 4.1-4.1 4.3-4.1.2 0 2.5 2.4 5.2 5.3zm53.7 81.9c6.8 4.5 7.7 7.6 11.7 41.8 2 16.8 3.6 31.5 3.6 32.7 0 2.6-10.4 15.7-23 28.7-28.8 30-61.6 53.4-98.1 70.1-5.4 2.5-10.1 4.5-10.4 4.5-.3 0-.5-23.8-.5-52.9v-52.8l42.1-37.7 42.2-37.7 14.2.3c13.4.3 14.4.4 18.2 3zm-31.9 322.6.3 14.2H393v-26.9l4.3-.5c6.6-.9 11.1-1.3 12.7-1.2 1.2.1 1.5 2.6 1.8 14.4zm-58.8.7V470h-19v-27h19v13.5zm25 2.1c0 15.2-.1 15.6-2.6 18.9l-2.6 3.4-2.4-2.8c-2.3-2.8-2.4-3.4-2.4-19V443h10v15.6zm-20.1 28.1c1.2 1 2.4 3.5 2.8 5.5l.6 3.8H326v-3.4c0-2.5.7-4 2.6-5.5 2.4-1.9 4-2.1 14.9-2.1 10.2 0 12.6.3 14.4 1.7zm58.9 0c1.2 1 2.4 3.5 2.8 5.5l.6 3.8H385v-3.4c0-2.5.7-4 2.6-5.5 2.4-1.9 4-2.1 14.9-2.1 10.2 0 12.6.3 14.3 1.7zM83.5 150.5c-31.9 8.5-59.1 16-60.4 16.7-1.3.7-3.3 2.6-4.3 4.3-1.7 2.8-1.8 7.2-1.8 82.8 0 85.8-.1 84.5 5.1 87.9 1.4.8 29.1 8.6 61.6 17.2l59.2 15.7 8.3-2.1c30.4-7.8 110.4-29.3 112-30.1 1-.6 2.8-2.5 3.8-4.2 1.9-3.1 2-5.8 2-83.7s-.1-80.6-2-83.7c-1-1.7-2.8-3.6-3.8-4.2-2.1-1.1-113.7-30.8-118.7-31.6-1.9-.2-24 5.2-61 15zm52.3 18.2-.3 15.7-50 8.8C58 198 34.7 201.9 33.7 202c-1.6 0-1.7-1-1.5-11.2l.3-11.2L82 166.4c27.2-7.2 50.5-13.2 51.8-13.3l2.3-.1-.3 15.7zm67.7-2.4 50 13.2.3 11.3c.2 8.6 0 11.2-1 11.2-.7 0-7.4-1.1-14.8-2.4-7.4-1.4-30-5.3-50.2-8.8l-36.8-6.3v-15.8c0-11.9.3-15.7 1.3-15.7.6 0 23.7 6 51.2 13.3zM136 210.4v10.4l-3.2.6C129 222 34.5 234 32.9 234c-.6 0-.9-3.1-.7-8.2l.3-8.2 49.5-8.7c27.2-4.8 50.5-8.7 51.8-8.8 2.1-.1 2.2.2 2.2 10.3zm68-1.6 49.5 8.7.3 8.2c.2 4.6 0 8.3-.4 8.3-1.1 0-95.7-12-99.1-12.5l-3.3-.6v-10.4c0-9.4.2-10.5 1.8-10.4.9 0 24 4 51.2 8.7zm-68 66.6c.5 36.9.6 38.8 2.4 40.2 2.8 2 6.9 1.7 9.7-.5l2.4-1.9.3-38.6.3-38.5 2.7.4c3.7.7 97.6 12.5 99.1 12.5.8 0 1.1 10.5.9 40.7l-.3 40.7-50 13.3C176 351 152.9 357 152.3 357c-.9 0-1.3-1.9-1.3-6.5 0-7.5-1.3-10.8-4.7-12.4-3.4-1.6-4.7-1.4-7.7 1-2.4 1.9-2.6 2.6-2.6 10 0 6.9-.2 7.9-1.7 7.8-1 0-24.3-6-51.8-13.3l-50-13.2-.3-40.5-.2-40.5 33.7-4.3c18.6-2.4 41.5-5.3 50.8-6.6 9.4-1.2 17.5-2.1 18-2 .6.1 1.2 14.3 1.5 38.9z"/></svg>