<svg version="1.0" xmlns="http://www.w3.org/2000/svg" width="682.667" height="682.667" viewBox="0 0 512 512"><path d="M302 1.1C276 4 249.9 12.5 228 25c-8.8 5-12 8.4-12 12.5 0 3.2 3.2 7.7 6.4 9 3.9 1.7 6.6 1.1 12.7-2.7 7.5-4.5 24.8-12.4 34.7-15.7 18.3-6 29.3-7.6 53.2-7.5 18.4 0 23 .3 32 2.3 23.2 4.9 47.1 15.4 66 28.8 12.2 8.7 30.6 27.2 39.2 39.3 24.2 34.2 35.2 75.9 30.7 116.8-6.3 58.4-41.7 109-94.4 134.8-54.3 26.5-118.5 22.1-168.6-11.4-38-25.5-63.1-63-73-109.2-2-9.1-2.3-13.5-2.3-32 0-18.6.3-22.9 2.3-32 4.1-19.3 11.3-37.8 22.1-57 2.3-4.1 3-6.3 2.6-8.5-1.3-6.5-8.5-10.1-14.4-7.1-5.3 2.7-17.6 26.4-23.7 45.7-15 47.6-11.8 95.8 9.3 140.2l5.6 11.8-73.5 73.7c-79.6 79.8-78 78-81.4 92.3-6.4 27.3 10.6 55 37.6 61.4 12.2 2.8 22.5 1.6 34.9-4.2 7.3-3.4 9.6-5.6 81.1-77l73.6-73.5 10.9 5.3c56.2 26.8 122.9 24.6 176.3-6.1 86.9-49.8 120.5-157.8 77.1-247.5-25.5-52.7-72.9-90.2-130.1-102.9-20-4.4-41.7-5.7-60.9-3.5zM175.3 310.2c8.4 10.4 17.7 19.6 28.5 28.3l7.3 5.8-15 15.1-15.1 15.1-21.7-21.7-21.8-21.8 15-15c8.2-8.2 15-15 15.1-15 .1 0 3.5 4.2 7.7 9.2zM145 367.5l21.5 21.5-49 49c-54.8 54.8-53.1 53.4-66.5 53.4-9.5 0-16.2-2.8-22.3-9.3-5.6-6-8.2-12.7-8.2-21.1 0-13.1-1.6-11.2 52.9-65.8 27-27 49.3-49.2 49.6-49.2.3 0 10.2 9.7 22 21.5z"/><path d="M313 47.2c-33.9 2.1-64.6 16.3-89.6 41.2-16.2 16.3-27.2 33.9-34.3 54.9-5.6 16.6-6.6 23.3-6.6 45.7 0 19 .3 21.3 2.8 31.5 14.8 58.7 60.3 100.1 119.6 108.6 10.5 1.5 37.9.6 47.6-1.6 27.7-6.2 51-19 71-39 21.8-21.7 35-47.4 40-77.3 2.1-12.6 1.6-40.5-.9-51.7-6.3-27.8-18.9-50.9-39-71.1-29.9-29.9-67.5-44-110.6-41.2zM348.3 69c42.3 9.5 75.7 38.7 90.2 79 8.8 24.5 8.8 56.3-.1 81.2-3.2 8.8-10.2 22.5-15.1 29.2l-3.5 4.9-3.8-7.1c-2-4-5.7-9.7-8.1-12.9-8.3-10.7-25.4-22.1-37.9-25.3-2.5-.6-5.1-1.3-5.8-1.5-.8-.3-.3-2 1.9-5.5 6.3-10.3 7.2-15 7.7-40.7.5-27.7-.4-34.2-5.9-45.2-12.5-25-42.6-34.4-68.4-21.4-7.6 3.9-16.9 13.8-21 22.5-4.8 10.1-5.8 19-5.3 45.6.5 24 1.8 30.2 7.7 39.1 1.7 2.5 2.8 4.8 2.6 5.2-.3.4-2.2 1-4.2 1.4-2.1.4-6.8 2-10.6 3.5-16.2 7-29.3 19.1-37.8 35.4l-3.7 6.9-3.5-4.9c-9.2-12.6-17.2-32.1-20.2-48.8-1.9-11.4-1.9-30.8 0-42.2C213.1 112.8 259.1 71 314 67.2c10.8-.8 26.5 0 34.3 1.8zm-11 52c5.7 2.9 11.2 8.6 13.7 14.4 2 4.4 3.7 13.6 2.5 13.6-.4 0-3.6-1.6-7.1-3.6-9.1-5.1-12-4.9-18.8 1.4-8.2 7.4-13.2 9.5-24.8 10l-9.8.4v-5.4c0-7.1 2.5-16.3 5.6-21.1 2.7-4.1 9.6-9.5 14.7-11.4 5.4-2.1 18.4-1.2 24 1.7zm9.6 48 7.4 4.2-.5 9.2c-.6 10.9-3 17.2-9 23.3-11.7 12-31.6 11.8-42.9-.4-5.7-6.2-8-11.8-8.2-20.6l-.2-7.2 11-.6c12.5-.7 18.8-2.7 28.1-8.8 3.3-2.1 6.1-3.7 6.4-3.6.3.1 3.8 2.1 7.9 4.5zM314 255.8c0 23.1.3 24.1 6.5 26.2 3 1 4.1.9 7.3-.7 5.4-2.6 6.1-5.6 6.1-27.6l.1-18.7h10.8c19.1 0 31.1 4.7 43.2 16.9 7.7 7.8 11.8 14.5 14.2 23.6l1.3 4.7-4.4 3.8c-10.5 9.1-29.2 18.3-45.8 22.6-13.3 3.5-36.3 4.4-50.3 2-18.8-3.3-36.7-11-51.9-22.3-7.1-5.4-7.3-5.6-6.8-9.1 1.3-7.6 7.4-18.2 15-25.7 12-11.9 23.4-16.3 43-16.4l11.7-.1v20.8zM187.9 55.9c-3.9 3.9-4 8.9-.1 13.1 3.7 4.2 7.8 4.8 12.1 1.8 1.9-1.3 3.9-3.6 4.4-5.1 3.2-9.8-9-17.1-16.4-9.8z"/></svg>