<svg version="1.0" xmlns="http://www.w3.org/2000/svg" width="682.667" height="682.667" viewBox="0 0 512 512"><path d="M251.6 17.2c-1 .6-6.6 10.8-12.4 22.7-5.8 11.9-10.6 21.7-10.8 21.9-.1.2-10.7 1.9-23.6 3.7-12.9 1.9-24.2 3.7-25.2 4.1-2.3.9-4.4 5.8-3.8 9 .3 1.5 7 8.8 17.9 19.3l17.5 16.8-4.2 24.1c-3.4 20-3.9 24.5-2.9 26.4 1.7 3.1 3.9 4.7 6.8 4.8 1.3 0 11.7-5 23.2-11 11.4-6.1 21.3-11 22-11 .6 0 10.4 4.9 21.9 11 11.4 6 21.8 11 23.1 11 2.9-.1 5.1-1.7 6.8-4.8 1-1.9.5-6.4-2.9-26.4l-4.2-24 17.5-16.9c10.8-10.5 17.6-17.8 17.9-19.3.6-3.1-1.5-8.1-3.8-9-1-.4-12.3-2.2-25.2-4.1-12.9-1.9-23.5-3.5-23.7-3.7-.1-.2-5-10-10.7-22-6.5-13.3-11.3-22-12.6-22.7-2.6-1.4-6.1-1.4-8.6.1zm12.9 41.9c4.4 8.8 8.8 16.5 9.9 17.1 1.6.9 31.3 5.7 35.6 5.8.8 0-4.8 6.2-12.3 13.8-7.5 7.6-13.7 14.3-13.7 14.8s1.3 8.6 3 17.9c1.6 9.4 3 17.4 3 17.8 0 .4-7.5-3.1-16.6-7.8-12.2-6.3-17.1-8.4-18.7-7.9-1.2.4-8.9 4.2-17.1 8.5-8.2 4.3-15.1 7.7-15.3 7.5-.2-.2 1-8.2 2.7-17.7 1.6-9.5 3-17.8 3-18.3s-6.2-7.2-13.7-14.8C206.8 88.2 201.2 82 202 82c4.3-.1 34-4.9 35.6-5.8 1.1-.6 5.5-8.3 9.9-17.1 4.4-8.9 8.2-16.1 8.5-16.1.3 0 4.1 7.2 8.5 16.1zM121.1 105.7c-1.2 1-5.2 8.2-9 16-4.4 9-7.6 14.3-8.8 14.6-1 .3-7.6 1.3-14.8 2.3-7.1.9-14.5 2.3-16.3 3-3.6 1.4-5.5 5.2-4.6 8.9.3 1.2 5.9 7.5 12.4 14l11.8 11.7-2.4 14.1c-2.8 16.6-2.9 19.5-.9 22.4 3.2 4.5 5.8 4 22.2-4.4l15.3-7.8 5.2 2.8c20.8 11.1 25.1 13 27.6 12.1 1.4-.5 3.4-2.1 4.4-3.5 1.9-2.5 1.9-2.7-.9-19.2l-2.8-16.6 12.3-12.4c13.3-13.4 14.2-15.3 10-20.2-2.1-2.3-3.9-2.8-18.7-5-9-1.3-16.5-2.5-16.6-2.7-.2-.2-3.5-6.7-7.4-14.5-3.8-7.8-8-14.9-9.3-15.7-2.9-2.1-6.1-2-8.7.1zm9.3 34.1c2.4 4.8 5.1 9.3 5.8 10 1.1.9 17.6 4.2 21.2 4.2.5 0-2.5 3.5-6.7 7.9-8.7 8.9-8.6 8.8-6.2 21.4.8 4.3 1.5 8.3 1.5 8.8s-4.5-1.4-9.9-4.3l-10-5.2-10.6 5.2c-8.1 4-10.5 4.8-10.1 3.4 1.1-3.9 2.6-13.8 2.6-17.6 0-3.7-.6-4.7-7.7-11.8-4.3-4.3-7.3-7.8-6.8-7.8 5.7-.1 20.1-3.2 21.8-4.7 1.1-1 3.8-5.5 5.9-10.1 2.1-4.5 4.1-8.2 4.3-8.2.3 0 2.5 4 4.9 8.8zM382.2 105.6c-1.3.8-5.5 7.9-9.3 15.7-3.9 7.8-7.3 14.4-7.5 14.6-.1.2-7.6 1.4-16.6 2.7-14.7 2.2-16.5 2.7-18.5 5-4.3 4.8-3.3 6.7 9.9 20.1l12.3 12.4-2.8 16.6c-2.8 16.5-2.8 16.7-.9 19.2 3.8 5.1 5.8 5 18.8-1.7 6.5-3.3 13.4-6.8 15.2-7.9l3.2-1.8 15.3 7.8c16.4 8.4 19 8.9 22.2 4.4 2-2.9 1.9-5.8-.9-22.4l-2.4-14.1 11.8-11.7c6.5-6.5 12.1-12.8 12.4-14 .9-3.7-1-7.5-4.6-8.9-1.8-.7-9.1-2.1-16.3-3-7.1-1-13.8-2-14.8-2.3-1.2-.3-4.4-5.6-8.8-14.6-3.8-7.8-7.8-15-9-16-2.6-2.1-5.8-2.2-8.7-.1zm8.6 33.6c2.1 4.6 4.8 9.1 5.9 10.1 1.7 1.5 16.1 4.6 21.8 4.7.5 0-2.5 3.5-6.8 7.8-7.1 7.1-7.7 8.1-7.7 11.8 0 3.8 1.5 13.7 2.6 17.6.4 1.4-2 .6-10.1-3.4l-10.6-5.1-9.9 5.2c-5.5 2.8-10 4.7-10 4.2s.7-4.5 1.5-8.8c2.4-12.6 2.5-12.5-6.2-21.4-4.2-4.4-7.2-7.9-6.7-7.9 3.6 0 20.1-3.3 21.2-4.2.7-.7 3.4-5.2 5.8-10s4.6-8.8 4.9-8.8c.2 0 2.2 3.7 4.3 8.2zM218.5 178.5c-2.3 2.2-2.5 3.2-2.5 12v9.5h-13.5c-13.1 0-13.7.1-16 2.5-2.5 2.4-2.5 2.4-2.5 24V248h-67.1l-2.4 2.5-2.5 2.4V304h16v-40h56v184h-56V320h-16V446.7l-5.7-2.8c-3.2-1.6-6.8-2.9-7.9-2.9-2.1 0-2.2-.5-2.6-12.8-.4-11.3-.7-13.3-3.1-17.8-3.8-7.5-6.9-10.7-13.9-14.5l-6.3-3.4h-33l-6.3 3.4c-7 3.8-10 6.9-14 14.5l-2.7 5.1-.3 37.7-.3 37.8 2.5 2.5 2.5 2.5h470.2l2.5-2.5 2.5-2.5-.3-37.8-.3-37.7-2.7-5.1c-4-7.6-7-10.7-14-14.5l-6.3-3.4h-33l-6.3 3.4c-7 3.8-10.1 7-13.9 14.5-2.4 4.5-2.7 6.5-3.1 17.8-.4 12.3-.5 12.8-2.6 12.8-1.1 0-4.7 1.3-7.9 2.9l-5.7 2.8V408h-16v40h-56V264h56v128h16V252.9l-2.5-2.4-2.4-2.5H328v-21.5c0-21.6 0-21.6-2.5-24-2.3-2.4-2.9-2.5-16-2.5H296v-9.5c0-8.8-.2-9.8-2.5-12l-2.4-2.5h-70.2l-2.4 2.5zM280 208v16h-48v-32h48v16zm-64 17.5c0 8.8.2 9.8 2.5 12l2.4 2.5h70.2l2.4-2.5c2.3-2.2 2.5-3.2 2.5-12V216h16v264h-24v-59.1l-2.5-2.4-2.4-2.5h-54.2l-2.4 2.5-2.5 2.4V480h-24V216h16v9.5zM70.4 409.4c1.8.8 4.6 3.1 6.2 5.2 2.7 3.5 2.9 4.4 3.2 15.1.3 9.7.2 11.3-1.2 11.3-.8 0-4 .9-7.1 2.1-11.9 4.4-21.8 17.6-23.1 30.6l-.7 6.3H32v-29.4c0-18.5.4-30.5 1.1-32.3 1.4-3.7 4.7-7.3 8.4-8.9 4.2-1.8 24.5-1.9 28.9 0zm400 0c1.8.8 4.6 3.1 6.2 5.2l2.9 3.7.3 30.9.3 30.8h-15.8l-.6-5.3c-1.4-13.9-11-27.1-23-31.5-3.2-1.2-6.4-2.2-7.2-2.2-1.2 0-1.5-1.9-1.5-9.9 0-13.4 2.2-18.4 9.5-21.7 4.2-1.8 24.5-1.9 28.9 0zM272 456v24h-32v-48h32v24zm-171.9 2.8c6.4 3.3 10.9 9.7 11.6 16.7l.6 4.5H63.7l.6-4.5c1.7-15.9 20.6-24.6 35.8-16.7zm336 0c6.4 3.3 10.9 9.7 11.6 16.7l.6 4.5h-48.6l.6-4.5c1.7-15.9 20.6-24.6 35.8-16.7zM184 472v8h-56v-16h56v8zm200 0v8h-56v-16h56v8z"/><path d="M216 264v8h16v-16h-16v8zM248 264v8h16v-16h-16v8zM280 264v8h16v-16h-16v8zM216 296v8h16v-16h-16v8zM248 296v8h16v-16h-16v8zM280 296v8h16v-16h-16v8zM216 328v8h16v-16h-16v8zM248 328v8h16v-16h-16v8zM280 328v8h16v-16h-16v8zM216 360v8h16v-16h-16v8zM248 360v8h16v-16h-16v8zM280 360v8h16v-16h-16v8zM216 392v8h16v-16h-16v8zM248 392v8h16v-16h-16v8zM280 392v8h16v-16h-16v8zM54.2 209.6c-1.2.8-4.3 5.7-6.9 10.7-2.5 5.1-5 9.5-5.5 9.8-.5.3-5.5 1.2-11.1 1.9-11.6 1.6-14.7 3.5-14.7 9.1 0 2.6 1.5 4.7 8.3 11.8l8.3 8.6-1.9 10.8c-1.8 10-1.8 10.9-.3 13.3 3.5 5.2 6 5.1 17.6-.6l10.4-5.2L69 285c11.6 5.7 14.1 5.8 17.5.6 1.5-2.3 1.5-3.3-.1-13.5L84.6 261l8.2-8.4c6.8-6.9 8.2-8.9 8.2-11.5 0-5.7-3.2-7.6-14.8-9.1-5.5-.7-10.5-1.6-11-1.9-.5-.3-3-4.7-5.5-9.8-4.7-9.2-7.5-12.3-11.2-12.3-1.1 0-3.1.7-4.3 1.6zm8 31.3c1.9 3.4 5.2 5.1 9.9 5.1 1.6 0 2.9.3 2.9.6 0 .4-1.6 2.5-3.6 4.7-3.6 3.9-3.6 4.1-3 9.9l.6 6-3.7-2.2c-4.7-2.8-7.8-2.8-13-.1L48 267l.6-5.8c.6-5.7.6-6-3-9.9-2-2.2-3.6-4.3-3.6-4.5 0-.3 2-.8 4.5-1 5.3-.7 7-1.8 9.7-7.2 2.2-4.4 2.3-4.3 6 2.3zM449.2 209.6c-1.2.8-4.3 5.7-6.9 10.7-2.5 5.1-5 9.5-5.5 9.8-.5.3-5.5 1.2-11.1 1.9-11.6 1.6-14.7 3.5-14.7 9.1 0 2.6 1.4 4.6 8.2 11.5l8.2 8.4-1.8 11.1c-1.6 10.2-1.6 11.2-.1 13.5 3.4 5.2 6 5.1 17.5-.6l10.4-5.2L464 285c11.6 5.7 14.1 5.8 17.6.6 1.5-2.4 1.5-3.3-.3-13.3l-1.9-10.8 8.3-8.6c6.8-7.1 8.3-9.2 8.3-11.8 0-5.7-3.2-7.6-14.8-9.1-5.5-.7-10.5-1.6-11-1.9-.5-.3-3-4.7-5.5-9.8-4.7-9.2-7.5-12.3-11.2-12.3-1.1 0-3.1.7-4.3 1.6zm8 31.3c1.9 3.4 5.2 5.1 9.9 5.1 1.6 0 2.9.3 2.9.6 0 .4-1.6 2.5-3.6 4.7-3.6 3.9-3.6 4.2-3 9.9l.6 5.8-4.3-2.1c-5.2-2.7-8.3-2.7-13 .1l-3.7 2.2.6-6c.6-5.8.6-6-3-9.9-2-2.2-3.6-4.3-3.6-4.5 0-.3 2-.8 4.5-1 5.3-.7 7-1.8 9.7-7.2 2.2-4.4 2.3-4.3 6 2.3zM144 296v8h24v-16h-24v8zM344 296v8h24v-16h-24v8zM144 336v8h24v-16h-24v8zM344 336v8h24v-16h-24v8zM144 376v8h24v-16h-24v8zM344 376v8h24v-16h-24v8zM144 416v8h24v-16h-24v8zM344 416v8h24v-16h-24v8z"/></svg>