<svg version="1.0" xmlns="http://www.w3.org/2000/svg" width="682.667" height="682.667" viewBox="0 0 512 512"><path d="M431.5 38.7c-6 1.9-104.4 33.9-218.5 70.9C24.6 170.8 5.2 177.3 2.8 180c-1.6 1.7-2.8 4.1-2.8 5.4 0 1.2 6.3 21.7 14 45.4l14 43v96.9c0 90.2.1 97 1.8 100.3 1.1 2.4 2.8 3.9 5.2 4.7 2.7.9 57.5 1.2 231.3 1.2 197.8.1 228.2-.1 231.3-1.4 6.7-2.8 6.4 2.1 6.4-104.4 0-57.4-.4-97-.9-98.4-.6-1.4-2-3.5-3.2-4.6-2.2-2.1-3.1-2.1-42.8-2.1-22.3 0-39.9-.4-39.1-.9.8-.4 19.3-6.6 41-13.6 50.3-16.2 49.7-16 51.5-19.5.8-1.6 1.5-3.7 1.5-4.7 0-2.8-59.8-186.4-61.3-188.1-1-1.2-6.8-4.3-7.9-4.2-.2.1-5.2 1.7-11.3 3.7zm31.4 100.4c14.5 44.5 26.2 81.2 26 81.4-.3.2-31.7 10.5-69.9 22.9L349.6 266H198.3c-143 0-151.3-.1-152.1-1.8-1.5-2.7-23.5-71.2-23.1-71.6.6-.6 50.5-16.6 51.6-16.6.5 0 5.6 14.3 11.4 31.7 8.9 27.1 10.8 32 13.1 33.7 5.5 4 13.3 1.2 15.2-5.3.8-2.9-.5-7.5-9.4-34.7-5.7-17.2-10.1-31.6-9.8-32 .5-.5 338.5-110.9 340.9-111.3.3-.1 12.3 36.4 26.8 81zM104 343.4v57.5l2.3 2.6c1.4 1.7 3.6 2.8 6.3 3.2 3.6.5 4.6.1 7.5-2.5l3.4-3 .3-57.6.2-57.6h360l-.2 85.2-.3 85.3h-435l-.3-85.3L48 286h56v57.4z"/><path d="M299 131.1c-60.8 19.8-120.3 39.1-132.3 43-20.2 6.5-22 7.3-23.8 10.2-3.5 5.6-1.2 12.1 5.1 14.7 2.4 1 3.9.9 9.2-.8 252.1-81.6 259.1-84 262.1-87.2 2.9-3.3 3.4-6.4 1.5-10.5-1.3-3-5.6-5.5-9-5.4-1.3 0-52 16.2-112.8 36zM396.6 139.5c-14.2 4.6-26.9 9.1-28.1 9.9-1.3.8-2.8 3.1-3.5 5-2.1 6.3 2.7 12.6 9.5 12.6 1.3 0 12.2-3.2 24.2-7.1 12-3.9 22.9-7.5 24.3-7.9 8.6-2.6 12-7.4 10-13.6-1.2-3.5-6-7.4-9-7.4-.8.1-13.1 3.9-27.4 8.5zM252.5 186.5c-.5.2-20.8 6.7-45 14.5-24.2 7.9-45.7 14.9-47.8 15.7-3.9 1.6-6.7 5.5-6.7 9.3 0 5 4.9 10 9.8 10 .9 0 23.1-7 49.2-15.5 51.7-16.7 52-16.9 52-24 0-5.5-7.1-11.7-11.5-10zM432 198.1c-9.8 3.3-13 6.2-13 11.5 0 4.6 2.4 8 6.5 9.4 4.7 1.5 21.8-3.8 25.8-8.1 3.8-4.1 3.7-9-.2-13-3.8-3.8-7.8-3.7-19.1.2zM382.5 214c-10.9 3.5-14 6.2-14 12.2 0 3.3.6 4.5 3.3 6.9 4 3.6 5.9 3.6 17.5-.1 11.1-3.6 14.2-6.1 14.2-12.2 0-3.3-.6-4.5-3.3-6.9-4-3.6-6.1-3.6-17.7.1zM165.1 315.6c-2.5 2.1-3.1 3.3-3.1 6.6 0 5.2 1.4 7.7 5.5 9.4 5.2 2.1 276.9 2.1 282.1-.1 4.6-1.9 7-7.2 5.4-12-2.3-7 9.3-6.5-146.4-6.5H168.2l-3.1 2.6zM164.9 353.9c-4.8 4.9-3.8 12.5 2.1 15.6 4.4 2.3 100.6 2.3 105 0 5.9-3.1 6.9-10.7 2.1-15.6l-2.9-2.9H167.8l-2.9 2.9zM386.9 353.9c-4.7 4.7-3.3 13.2 2.6 15.9 3.2 1.5 56.1 1.7 59.9.2 1.4-.5 3.5-2.4 4.6-4.2 2.7-4.3 2-8.4-2-12.1l-3-2.7h-59.2l-2.9 2.9zM372.3 418.5c-4 1.7-6.9 7.1-5.9 11 .4 1.5 1.8 3.8 3.1 5.1 2.3 2.3 3 2.4 14.8 2.4 12 0 12.5-.1 15-2.5 3.3-3.4 4-7.2 1.9-11.5-1.2-2.4-2.8-3.9-5.2-4.7-4.9-1.7-19.7-1.6-23.7.2zM425.3 418.5c-4.6 2-6.8 6.8-5.4 11.6 1.8 6.1 3.8 6.9 17.6 6.9 13.6 0 15.6-.7 17.5-6.5 1.6-5-1.1-10.5-6-12.2-4.9-1.6-19.7-1.6-23.7.2zM110.4 421c-4.1 1.6-6.4 5.9-6.4 11.7 0 4.7.4 5.9 2.9 8.4 3.5 3.4 9.3 3.9 12.7 1.1 6.8-5.5 5.5-17.6-2.1-20.8-3.9-1.6-4.2-1.6-7.1-.4z"/></svg>