<svg version="1.0" xmlns="http://www.w3.org/2000/svg" width="682.667" height="682.667" viewBox="0 0 512 512"><path d="M230 8.5V17h17V42.7l-12.3 1.2c-86.6 8.4-160.8 67.3-188.6 149.6-6.3 18.9-9.8 35.7-11.3 55.7L33.6 265H19.9c-7.6 0-14.5.3-15.4.6-2.2.9-4.5 5.7-4.5 9.6.1 13.2 7 28.8 17.4 39.3 7.7 7.8 14.5 12 24.6 15.6 6.2 2.2 8.1 2.3 42.8 2.7l36.2.4-11.2 9.3c-7.2 6-11.6 9.1-12.2 8.5-.6-.6-20.1-1-49.3-1H0v17h85v128H0v17h47.6c34.2 0 48.1-.3 49.7-1.2 4.3-2.2 4.6-3.7 4.7-18.5v-14.2l107.3-.4 107.2-.3 6.5-2.2c3.6-1.2 9.4-3.9 12.8-5.9 8.4-5.1 116.1-94.4 118.9-98.5 6-9 7.7-19.9 4.6-28.8-1.1-3-2.3-6.3-2.7-7.2-.6-1.3-.2-1.8 2.1-2.3 10.1-2 13.6-3.1 20.3-6.3 10.3-5 21.3-15.9 26.3-26.2 3.7-7.4 6.6-18.5 6.7-24.8 0-3.9-2.3-8.7-4.5-9.6-.9-.3-7.8-.6-15.4-.6h-13.7l-1.2-15.8c-1.5-20-5-36.8-11.3-55.7-27.8-82.4-102-141.2-188.6-149.6L265 42.7V17h17V0h-52v8.5zM278.5 61c36.3 4.2 71.5 18.4 101.7 41.1 10.4 7.8 30.5 27.9 38.5 38.4 23.5 31.2 37.7 67.8 41.2 106.5.6 6.3 1.1 12.7 1.1 14.2v2.8H51v-2.8c0-1.5.5-7.9 1.1-14.2 3.5-38.7 17.7-75.3 41.2-106.5 8-10.5 28.1-30.6 38.5-38.4 29.6-22.3 65.5-36.9 100.5-41 10.4-1.2 35.8-1.2 46.2-.1zm214.3 224.7c-1.8 6.5-4.9 11.5-10.7 17.3-6.5 6.5-14.4 10.5-23.3 12-8.7 1.4-396.9 1.4-405.6 0-15.9-2.6-30-14.8-34-29.3l-1-3.7h475.6l-1 3.7zm-218.4 48.8c9 4.3 9 18.7-.1 22.3-1.8.7-14.6 1.2-34.8 1.4-35.3.4-35.6.4-43 6.9-11.2 9.9-11.2 27.9 0 37.8 7.9 6.9 5.1 6.6 66.5 6.6h55.6l50-35.7c27.5-19.7 51.8-36.5 53.9-37.4 9.7-4 21.4 4.2 21.5 15.2 0 7.3-2.3 9.5-59 56.3-30 24.8-56.6 46.2-59.2 47.6-10 5.5-9.7 5.5-120.5 5.5H103v-90.5l19.2-16c10.5-8.8 20.1-16.6 21.1-17.4 5.4-3.9 7.5-4 68.5-4.1 51.1 0 59.8.2 62.6 1.5zm79.8 28.5-42 30.1-51.2-.3-51.2-.3-2.4-2.8c-3.1-3.6-3.1-7.8 0-11.4l2.4-2.8 33.9-.5c33-.5 33.9-.6 38.3-2.8 13.9-7.3 20-23.1 14.4-37.5-.6-1.6 3.1-1.7 49.7-1.7h50.2l-42.1 30z"/><path d="M231.1 78.6c-29.2 4-58.9 15.5-82.1 31.9-6.8 4.8-21 16.6-21 17.4 0 .4 2.6 3.2 5.8 6.3l5.7 5.7 6.5-5.5c18.1-15.3 40-27 63.5-33.9 10.2-3 32.2-6.5 40.8-6.5h5.7V77l-7.2.1c-4 .1-12 .7-17.7 1.5zM110.8 145.8c-2.5 3.1-6.1 7.9-7.9 10.5l-3.4 4.9 2.5 2c1.3 1.1 4.4 3.1 6.9 4.6l4.4 2.6 2.6-3.4c1.4-1.9 4.7-6.1 7.4-9.4l4.7-6-2.7-2.9c-1.6-1.6-4.4-4.2-6.3-5.7l-3.6-2.9-4.6 5.7zM33.9 428.4c-13 4.6-19.9 19.7-15 32.8 6.6 17.4 28.8 22.1 41.9 8.7 4.4-4.5 6.5-9.5 7-16.5 1.2-17.8-16.8-31.1-33.9-25zm14.6 18.1c5.3 5.2 1.6 13.9-6 13.9-8.1 0-11.1-10.1-4.6-15.1 2.7-2.1 7.9-1.5 10.6 1.2z"/></svg>