<svg version="1.0" xmlns="http://www.w3.org/2000/svg" width="682.667" height="682.667" viewBox="0 0 512 512"><path d="M233.5 35.7c-43.8 5.5-70 26.3-77.1 61.2-1.3 6.8-1.5 11.4-1 23 .3 8 .8 15.9 1.1 17.6.6 2.7.1 3.4-4.2 6.5-16.8 12.2-12.2 37.8 7.9 43.8l5.6 1.7 2.2 8.1c2.7 10.2 9.2 24.7 15.2 34.1 8.8 13.6 24.9 28.5 37.1 34.4 5.5 2.7 5.4 2 1.1 18.9-4.8 18.5-14 26-32.3 26-12 0-29.3 4.5-42.1 11-15.1 7.6-29.8 20.3-39.1 33.7-6.4 9.2-13.1 23.4-16 33.8-2.1 7.5-2.3 10.3-2.6 46.3-.3 28.6-.1 38.7.8 39.8 1.6 2 6.6 1.8 7.8-.4.5-1 1.1-17.8 1.3-38.2.4-34.2.6-37 2.7-44.5 7.9-28.1 26.7-50.5 52.4-62.5 10.7-5.1 22.3-7.8 37.8-9 10.6-.8 13.1-1.3 18.5-4 7.4-3.6 13.6-10.1 17-17.8 2-4.4 5.2-15.8 7-24.8.4-2.1.5-2.1 6.1-.8 8.9 2.1 23.6 1.8 34.2-.8.9-.2 2.1 3 3.7 10 2.6 11.4 5.8 19.2 10.1 24.7 3.5 4.5 11.5 9.9 17.1 11.5 2.3.7 4.2 1.6 4.2 2 0 2.4-11.4 17.6-19.3 25.7-25.7 26.6-61.6 44.3-109.6 54.2l-9.1 1.8v-2.1c0-5.8-6.4-8.7-9.4-4.4-1.4 1.9-1.6 7.4-1.6 40 0 32.9.2 37.9 1.6 39.2 4 4 9.4.3 9.4-6.4v-3.6l14.3-1.7c80.2-9.7 149.1-49.4 189.8-109.5 7.2-10.6 8.5-12.2 10.3-12.2 1.5 0 10.4 10 15.1 17 4.8 7.2 11.5 20.6 11.5 23 0 3-16.6 23.7-29 36.1-21.8 21.8-41.5 35.1-69.4 46.4-10.7 4.3-12.7 6.4-10 10.4 2 2.9 5 2.7 14.1-1 32-12.6 61.7-34.2 85.2-61.9 3.6-4.1 6.8-7.7 7.3-7.8.4-.2.8 15.1.8 34 0 29.5.2 34.7 1.6 36.6 1.8 2.7 5.5 2.9 7.7.4 1.5-1.6 1.7-5.4 1.7-32.7 0-22.5-.4-33.5-1.5-41.1-1.5-9.5-1.4-10.6.1-12.9 3.9-5.9-.9-20-12.6-36.9-6.5-9.3-15.9-18.4-20-19.2-2.2-.5-3.5-1.6-4.7-4.2-4.3-9.1-36.9-22.9-55.4-23.5-5.8-.2-6.9.1-10.3 2.7-3.1 2.3-4.4 2.7-7.4 2.3-5.4-.9-12.3-5.7-15.8-10.9-3.2-4.7-7.1-17-8-25.5l-.6-4.8 4.9-2.5c8.4-4.4 20.3-14 27.3-22.2 11.2-13.2 18.5-27 24-45.3 2.7-8.9 2.8-9 6.7-10.1 8.6-2.5 14.9-7.9 18-15.3 2.1-5 1.9-14-.4-19.2-2.2-4.8-7.2-10.2-11.7-12.6-2.4-1.3-2.7-1.9-2.2-4.6.3-1.8.8-9.5 1.2-17.2.6-11.3.4-15.7-1-22.5-4.3-21.3-16.5-34-34-35.7-5.9-.5-6.4-.8-8.1-3.9-2.9-5.4-12-13.3-18.8-16.4-10.3-4.7-19.4-6-38.9-5.9-9.5.1-18.6.4-20.3.6zm46 11.8c12.6 3.4 20.8 9.4 24.5 18 1 2.3 2.3 4.6 3 5 .6.4 4.3.8 8.3.9 12.6.5 21.3 6.7 25.7 18.3 2.9 7.8 4.4 21.3 3.5 31.7l-.7 8.8-3-5.3c-3.9-7-11.8-15-17.6-18-5.6-2.8-17.7-3.8-25-1.9-2.6.6-8.2 3.4-12.4 6.2-12.1 7.8-18 9.9-29.2 9.9-13.8 0-19.3-1.8-32.1-10.5-3.4-2.4-8.6-4.9-11.5-5.6-7.5-1.8-19.4-.9-25 2-6.4 3.3-14.3 11.9-18.2 19.7l-3.3 6.8-.8-6.5c-1-8.4-.2-23.7 1.8-31.9 2.6-10.9 7.1-18.8 15.5-27.1 11.6-11.7 26.7-18.4 48.5-21.5 13-1.9 39.6-1.3 48 1zm-69 67.6c2.1.6 6.4 2.8 9.5 4.9 12.5 8.5 22.9 12 35.5 12 12.6 0 23.1-3.6 35.6-12 17.9-12.1 34.9-5.6 43.5 16.6 2.4 6 2.8 8.7 3.2 20.9 1 33.5-9.9 62.7-31.8 84.6-22.6 22.8-50.7 28.6-77.8 16.3-32-14.6-53-50.3-54.8-93.4-.9-19.8 2.5-31.9 11.8-42.5 6.8-7.8 15.2-10.2 25.3-7.4zm-47.3 54.6c.5 9.5-.1 10.1-5.6 5.3-6.6-5.8-7.1-14.1-1.3-20.7l3.2-3.6 1.6 5.4c.9 3 1.8 9.1 2.1 13.6zm194-12.6c3.6 6.7 1.4 15.1-4.9 19-1.9 1.2-3.7 1.9-4 1.5-.7-.7 1.2-24 2.2-25.6 1-1.7 4.4.9 6.7 5.1zm-16.3 160c10.2 2.6 20.4 6.7 28.2 11.4 4.7 2.9 5.9 4.2 5.9 6.2 0 5.8-21.6 34.1-37.6 49.3-42.5 40.1-94.4 62.9-160.6 70.4l-4.8.6v-41.9l3.8-.6c20-3.5 46.3-11.3 64.7-19.3 35.9-15.6 65.5-41.4 80.3-70 4.2-8.1 4.4-8.2 8.1-8.2 2 0 7.4.9 12 2.1z"/><path d="M286.5 393.1c-7.3 4.8-28.1 15.5-38.7 19.9-4.8 2-7.9 3.9-8.3 5-.8 2.5 1 5.7 3.4 6.5 5.9 1.8 55.4-23.7 56.8-29.3 1.7-6.8-4.7-7.8-13.2-2.1zM371.6 396.6c-8.1 8.8-22.7 21-34.7 29.2-6.5 4.4-8.5 6.3-8.7 8.3-.3 2.8 2 5.9 4.3 5.9 2 0 19.1-11.5 27.5-18.5 9.7-8.1 26-24.8 26-26.6 0-2.5-3-5.9-5.2-5.9-1.4 0-4.7 2.7-9.2 7.6z"/></svg>