<?xml version="1.0" standalone="no"?>
<!DOCTYPE svg PUBLIC "-//W3C//DTD SVG 20010904//EN"
 "http://www.w3.org/TR/2001/REC-SVG-20010904/DTD/svg10.dtd">
<svg version="1.0" xmlns="http://www.w3.org/2000/svg"
 width="273.000000pt" height="291.000000pt" viewBox="0 0 273.000000 291.000000"
 preserveAspectRatio="xMidYMid meet">

<g transform="translate(0.000000,291.000000) scale(0.100000,-0.100000)"
fill="#000000" stroke="none">
<path d="M1294 2678 c6 -26 4 -28 -29 -28 -24 0 -39 6 -47 20 -7 11 -17 20
-22 20 -6 0 -5 -5 2 -12 23 -23 12 -35 -40 -42 -66 -9 -172 -46 -161 -57 5 -5
31 -1 59 8 49 15 104 12 104 -5 0 -5 -14 -19 -31 -31 -30 -22 -35 -23 -105
-12 -41 6 -90 11 -109 11 -19 0 -35 3 -35 7 0 4 17 25 38 46 26 27 30 36 15
28 -13 -6 -33 -25 -45 -41 -19 -26 -28 -30 -67 -30 -25 0 -53 -5 -61 -10 -11
-7 0 -10 37 -10 l52 0 -19 -32 c-10 -18 -26 -59 -35 -90 -9 -32 -24 -66 -33
-78 -25 -29 -202 -113 -221 -104 -9 4 -27 9 -40 10 -13 2 -31 10 -41 19 -17
16 -18 16 -13 -4 6 -25 16 -32 55 -40 29 -6 29 -6 -26 -38 -63 -36 -62 -37
-56 51 1 26 -2 36 -9 32 -6 -4 -11 -35 -11 -69 l-1 -62 -73 -48 c-78 -50 -103
-73 -93 -84 4 -3 26 10 49 29 24 19 61 46 83 61 l39 27 13 -53 c7 -28 28 -82
46 -118 l32 -67 -34 -38 c-18 -22 -70 -84 -114 -139 -44 -55 -83 -101 -88
-103 -10 -4 -62 78 -86 135 -10 24 -21 43 -24 43 -4 0 -9 -19 -12 -42 -3 -24
-11 -72 -17 -108 -19 -109 -15 -301 9 -423 54 -270 163 -480 345 -661 229
-230 531 -349 881 -349 218 0 375 35 570 128 242 115 446 318 555 550 71 152
123 355 132 519 2 43 -1 50 -23 61 -14 8 -42 39 -63 71 l-38 56 30 42 c38 53
65 106 58 114 -3 3 -6 1 -6 -5 0 -14 -79 -133 -88 -133 -4 0 -35 37 -69 83
-34 45 -88 111 -120 146 l-58 64 32 66 c18 36 41 98 50 136 10 39 19 72 20 74
1 2 22 -8 45 -23 l43 -27 -35 31 c-19 16 -38 30 -42 30 -4 0 -9 12 -9 28 -1
16 -3 20 -6 10 -2 -10 -6 -18 -8 -18 -2 0 -48 22 -102 50 -54 27 -136 65 -183
84 -74 30 -86 38 -97 67 -12 32 -13 32 -9 5 3 -26 2 -28 -23 -22 -14 4 -71 17
-126 30 -96 22 -101 24 -119 59 -11 20 -17 39 -15 41 6 6 163 26 202 26 24 0
31 -7 52 -52 14 -29 25 -47 25 -40 0 7 -9 30 -20 52 l-20 39 43 4 42 4 -46 1
c-38 2 -49 7 -67 32 -13 17 -28 30 -34 30 -6 0 -1 -11 12 -25 13 -14 22 -26
19 -28 -2 -2 -55 -9 -117 -16 -113 -13 -114 -13 -138 10 -22 21 -23 25 -9 35
12 9 32 8 88 -7 81 -21 97 -23 97 -11 0 10 -119 44 -217 63 l-62 11 16 27 15
26 -23 -27 c-19 -20 -30 -25 -51 -21 -24 4 -27 9 -23 32 l5 26 -11 -27 c-7
-20 -18 -28 -34 -28 -18 0 -25 6 -28 28 l-4 27 -2 -28 c-1 -23 -5 -28 -23 -25
-12 2 -29 14 -36 28 l-14 25 6 -27z m-17 -54 c-3 -3 -12 -4 -19 -1 -8 3 -5 6
6 6 11 1 17 -2 13 -5z m-64 -21 c-34 -17 -81 -10 -53 7 8 6 31 9 50 9 l35 0
-32 -16z m108 -23 c15 -49 24 -46 11 4 -9 32 -8 36 9 36 16 0 19 -7 19 -45 0
-25 -2 -45 -4 -45 -2 0 -11 -2 -19 -5 -20 -8 -74 74 -55 86 22 14 27 11 39
-31z m85 8 l-5 -33 11 33 c12 34 15 37 36 23 11 -7 8 -17 -14 -52 -24 -39 -28
-41 -35 -24 -4 11 -8 14 -8 8 -1 -7 -5 -13 -11 -13 -5 0 -10 20 -10 45 0 39 3
45 21 45 18 0 20 -5 15 -32z m169 11 c15 -14 -19 -11 -56 6 l-34 15 40 -6 c22
-4 44 -10 50 -15z m-291 -37 c43 -63 30 -69 -40 -21 -25 17 -48 29 -50 26 -3
-3 18 -19 46 -36 28 -17 49 -35 46 -40 -3 -5 -42 0 -87 12 -77 19 -80 21 -62
37 21 21 93 60 109 60 6 0 23 -17 38 -38z m242 28 l27 -11 -54 -34 c-50 -32
-79 -43 -79 -30 0 15 54 85 66 85 7 0 25 -5 40 -10z m69 -42 l28 -22 -84 -22
c-97 -27 -99 -27 -99 -15 0 9 107 80 121 81 4 0 19 -10 34 -22z m-580 -19 c42
-6 74 -14 72 -18 -2 -3 -12 -25 -23 -48 -18 -40 -23 -44 -89 -63 -38 -11 -94
-30 -124 -41 -30 -10 -56 -18 -58 -16 -22 22 98 108 177 127 29 7 50 18 50 25
0 23 -98 -10 -167 -57 -23 -15 -44 -28 -47 -28 -8 0 20 75 39 104 20 30 49 33
170 15z m183 -36 c40 -9 71 -21 69 -27 -2 -6 -40 -16 -84 -22 -44 -7 -89 -15
-101 -18 -28 -9 -29 8 -2 52 23 37 23 37 118 15z m231 -7 c18 -19 22 -33 19
-65 -2 -23 0 -41 5 -41 10 0 37 -21 93 -70 l37 -32 -24 -19 c-27 -21 -10 -26
21 -7 10 7 23 9 27 4 9 -9 -31 -41 -72 -57 -16 -6 -40 -16 -52 -22 -13 -6 -26
-8 -29 -5 -3 4 4 9 15 13 29 9 27 29 -2 21 -21 -5 -24 0 -40 58 -20 77 -21 86
-4 86 7 0 33 -34 57 -75 23 -42 45 -74 47 -71 3 3 -80 152 -92 164 -2 2 -12
-2 -22 -9 -19 -11 -19 -13 1 -85 10 -41 16 -77 13 -81 -4 -3 -19 -1 -33 6 -24
11 -26 15 -22 76 2 53 0 65 -12 65 -8 0 -29 9 -47 19 l-31 20 -69 -58 c-37
-32 -77 -58 -88 -58 -27 0 -45 15 -45 39 0 15 21 29 86 59 48 22 93 38 100 35
8 -3 14 1 14 9 0 16 -17 29 -22 17 -3 -9 -175 -92 -189 -92 -5 0 -9 8 -9 18 0
9 -4 24 -9 31 -7 10 -8 1 -4 -25 4 -36 2 -40 -29 -58 -18 -11 -66 -41 -106
-68 -40 -26 -76 -48 -81 -48 -5 0 -16 30 -25 68 -14 61 -14 68 1 79 19 15 149
59 213 73 155 33 189 39 223 40 22 0 37 5 37 12 0 6 10 22 22 35 31 33 96 32
127 -1z m224 -14 l20 -33 -64 6 c-171 16 -177 19 -76 47 82 22 97 19 120 -20z
m-40 -37 c44 -5 57 -10 57 -23 0 -14 2 -15 10 -2 7 12 18 12 70 2 34 -7 90
-22 126 -33 61 -19 64 -21 65 -52 2 -30 2 -30 6 -4 2 15 8 27 13 27 20 0 170
-64 263 -112 76 -40 97 -56 97 -73 0 -31 -27 -130 -51 -186 -36 -82 -40 -82
-127 3 -42 41 -111 101 -153 134 l-75 60 12 35 c7 18 13 45 13 59 0 15 -6 5
-13 -23 -7 -26 -16 -50 -19 -53 -3 -3 -55 25 -116 63 -105 65 -111 70 -112
103 -2 30 -3 31 -6 8 -2 -16 -8 -28 -12 -28 -21 0 -201 92 -196 100 3 5 25 7
48 5 23 -3 68 -7 100 -10z m-52 -64 c96 -45 100 -48 92 -67 -11 -30 -62 -15
-126 37 -98 82 -91 88 34 30z m-287 -57 c-14 -24 -24 -44 -21 -44 3 0 16 18
28 40 13 22 28 38 33 35 6 -3 19 -8 29 -11 16 -6 18 -17 17 -68 -3 -77 -2 -88
8 -82 4 2 18 -2 32 -9 23 -12 20 -13 -38 -14 l-63 0 6 37 5 37 -11 -34 c-10
-31 -12 -33 -46 -28 -19 4 -37 8 -40 10 -2 3 6 21 18 41 11 20 19 36 16 36 -3
0 -14 -16 -26 -35 -20 -35 -21 -35 -50 -20 -16 8 -32 19 -35 24 -7 11 145 142
156 135 5 -3 -4 -25 -18 -50z m-479 -64 c9 -36 17 -70 18 -76 1 -6 -32 -38
-73 -71 -41 -33 -110 -93 -153 -133 -43 -40 -79 -71 -81 -69 -15 17 -57 116
-70 164 -12 47 -13 62 -3 72 34 33 294 169 304 159 10 -10 -59 -137 -83 -152
-32 -21 -69 -11 -88 24 -9 15 -15 23 -16 17 0 -5 9 -25 20 -42 15 -25 27 -33
48 -33 36 0 63 28 99 105 38 79 54 107 58 103 2 -2 11 -32 20 -68z m981 4
c123 -76 123 -76 100 -119 -10 -18 -28 -43 -40 -54 l-22 -21 -93 100 c-51 55
-88 100 -83 100 6 0 13 11 16 25 4 14 12 25 20 25 7 0 53 -25 102 -56z m-700
29 c19 -26 17 -43 -5 -43 -11 0 -23 -4 -26 -10 -4 -6 6 -10 24 -10 28 0 27 -3
-57 -90 l-87 -91 -38 43 c-50 58 -55 77 -26 100 37 29 182 118 192 118 6 0 16
-8 23 -17z m637 -132 c48 -49 87 -93 87 -98 0 -6 -8 -17 -17 -25 -24 -20 -113
-71 -117 -67 -18 23 -96 186 -96 201 0 10 -4 16 -10 13 -5 -3 -10 -3 -10 2 0
8 61 62 71 63 3 0 44 -40 92 -89z m-553 52 c21 -13 29 -24 26 -36 -3 -14 -2
-16 9 -7 24 20 78 2 96 -33 8 -17 22 -33 30 -35 10 -4 9 0 -3 15 -26 29 -22
43 12 43 l31 0 -3 -57 c-3 -54 -5 -58 -25 -55 -31 4 -29 -16 2 -24 23 -6 25
-11 25 -65 0 -55 -2 -59 -22 -59 -55 0 -98 13 -99 29 0 10 -2 11 -6 4 -6 -17
-36 -16 -99 4 l-53 16 50 99 c27 54 47 98 44 98 -3 0 -26 -42 -51 -92 -25 -51
-48 -94 -49 -96 -4 -4 -95 43 -117 61 -10 8 -18 18 -18 22 0 10 171 185 181
185 4 0 21 -8 39 -17z m380 -38 c0 -8 -9 -19 -20 -25 -11 -6 -18 -15 -15 -20
4 -6 16 -3 29 6 23 15 24 14 71 -72 25 -47 44 -92 42 -99 -4 -9 -105 -45 -129
-45 -4 0 -12 26 -18 58 -7 31 -16 64 -22 72 -7 12 -8 11 -4 -5 22 -99 28 -127
25 -129 -2 -2 -32 -6 -66 -10 l-63 -7 0 64 c0 45 5 68 15 77 8 7 15 17 15 22
0 6 -7 5 -15 -2 -13 -11 -15 -5 -15 44 l0 56 33 1 c17 1 35 1 39 0 4 0 22 6
40 14 43 18 58 19 58 0z m437 -52 c108 -87 233 -205 233 -221 0 -18 -80 -114
-120 -142 l-29 -21 -28 43 c-41 64 -167 231 -186 247 -10 7 -17 18 -17 23 0
12 73 117 82 118 3 0 32 -21 65 -47z m-1137 16 c7 -11 27 -38 46 -58 l33 -38
-75 -94 c-42 -52 -94 -122 -117 -156 -23 -35 -47 -63 -53 -63 -13 0 -154 147
-154 160 0 16 283 269 302 270 4 0 12 -9 18 -21z m1083 -223 c46 -61 93 -127
105 -148 l22 -36 -25 -20 c-45 -35 -171 -96 -187 -90 -21 9 -33 59 -16 69 7 5
19 7 26 4 6 -2 12 3 12 11 0 13 -7 15 -33 10 l-32 -6 -48 95 c-26 52 -47 98
-47 101 0 4 14 4 31 0 41 -8 34 15 -9 26 -17 5 -34 12 -37 17 -3 5 25 30 62
54 49 33 71 43 80 35 7 -5 50 -60 96 -122z m-938 79 c32 -19 62 -36 68 -38 7
-2 1 -25 -15 -63 -65 -146 -131 -289 -133 -292 -5 -5 -166 76 -192 96 l-22 17
51 75 c50 74 177 240 183 240 1 0 28 -16 60 -35z m183 -76 c28 -8 52 -19 52
-26 0 -17 -21 -117 -26 -122 -2 -2 -13 4 -24 14 -11 10 -20 14 -20 8 0 -5 9
-18 20 -28 11 -10 21 -28 21 -39 1 -17 2 -18 6 -3 3 11 14 17 34 17 22 0 32 6
39 26 14 36 12 42 -6 16 -8 -12 -24 -22 -35 -22 -22 0 -22 -4 -8 78 l11 64 37
-6 c20 -3 48 -6 64 -6 16 0 27 -5 27 -14 0 -9 -7 -12 -19 -9 -11 3 -28 -4 -40
-16 -26 -26 -28 -51 -3 -28 10 10 28 17 40 17 22 0 22 -2 22 -160 l0 -160 -34
0 c-18 0 -61 3 -95 6 l-61 7 -1 36 c-2 31 -3 32 -6 8 -3 -16 -11 -31 -18 -33
-21 -8 -205 34 -223 51 -4 4 66 168 115 272 30 64 39 74 57 70 11 -3 45 -11
74 -18z m518 -14 c16 -25 116 -244 128 -281 6 -19 -2 -23 -81 -47 -152 -44
-140 -46 -153 20 -6 32 -14 66 -16 75 -4 12 5 21 30 32 20 8 36 20 36 26 0 7
-6 8 -19 0 -11 -5 -30 -10 -42 -10 -18 0 -20 4 -16 26 2 14 -4 48 -14 75 -27
70 -25 86 11 94 16 4 33 4 37 2 5 -2 17 -1 28 4 35 14 54 10 71 -16z m-176
-29 c0 -17 -8 -27 -29 -34 -39 -14 -111 5 -111 29 0 18 22 24 103 27 33 2 37
-1 37 -22z m765 -35 c52 -56 170 -204 186 -232 7 -15 2 -26 -27 -58 -19 -22
-44 -43 -54 -46 -11 -3 -60 1 -109 10 l-89 17 -55 96 -55 97 76 82 c43 44 78
82 79 82 1 1 23 -21 48 -48z m-1683 -56 l76 -80 -45 -75 c-24 -41 -63 -111
-85 -155 -22 -44 -42 -82 -44 -84 -2 -2 -37 21 -77 52 -83 63 -142 131 -131
150 43 72 211 280 223 275 3 -2 40 -39 83 -83z m889 34 c18 6 34 9 37 6 7 -7
62 -278 57 -283 -5 -5 -132 -21 -172 -22 l-33 0 0 149 c0 134 2 150 18 153 9
2 27 0 39 -5 14 -6 33 -6 54 2z m633 -187 c25 -43 46 -82 46 -85 0 -4 -19 -7
-43 -7 -40 0 -89 -22 -76 -34 3 -3 22 -1 43 5 64 18 89 6 120 -58 31 -63 35
-56 -59 -105 -37 -19 -54 -24 -46 -14 19 22 5 33 -17 13 -21 -19 -103 -42
-124 -35 -8 3 -37 66 -64 139 -27 74 -50 137 -52 140 -2 4 29 24 69 44 39 20
88 47 108 59 20 13 39 22 43 20 3 -2 27 -39 52 -82z m-1284 -14 c36 -17 66
-31 67 -32 2 -2 -15 -47 -36 -102 -21 -54 -47 -125 -57 -158 -10 -32 -24 -60
-30 -63 -27 -10 -254 96 -254 119 0 12 73 160 127 256 l35 62 41 -26 c23 -14
71 -39 107 -56z m-600 -30 c7 -11 7 -19 0 -23 -6 -4 -18 11 -26 32 -9 21 -18
43 -21 48 -7 14 36 -37 47 -57z m1609 -20 c7 -18 4 -25 -10 -30 -24 -9 -25
-30 -1 -26 12 2 26 -15 49 -62 32 -64 45 -113 22 -80 -8 12 -9 9 -4 -10 4 -14
16 -38 27 -53 11 -16 18 -34 15 -40 -7 -19 -215 -77 -272 -77 -17 0 -16 -1
-46 178 -12 73 -24 130 -26 128 -3 -3 5 -65 17 -138 30 -188 31 -171 -15 -179
-22 -4 -82 -10 -132 -14 l-93 -7 0 175 0 174 103 9 c60 6 104 6 106 1 2 -5 6
-4 10 2 4 6 51 22 105 36 55 13 101 27 104 30 12 12 33 3 41 -17z m-815 -17
c44 -11 91 -21 104 -21 21 0 24 -4 19 -27 -3 -16 -13 -79 -23 -141 l-18 -114
-46 7 c-70 10 -80 14 -101 48 -18 28 -20 29 -14 7 14 -50 32 -67 81 -75 25 -3
53 -9 60 -12 15 -6 19 -29 6 -37 -16 -9 -277 49 -287 64 -3 5 75 249 100 313
5 11 15 17 24 14 9 -3 52 -14 95 -26z m1501 -31 c16 -22 26 -42 24 -44 -4 -4
-113 12 -138 20 -10 3 -3 16 24 44 43 44 46 43 90 -20z m-2150 -78 c40 -32 80
-61 89 -67 15 -9 15 -15 -6 -62 -12 -29 -25 -53 -29 -53 -9 0 -107 129 -152
200 -27 43 -33 60 -25 73 9 16 11 15 30 -9 12 -14 54 -51 93 -82z m946 68 l39
0 0 -175 0 -175 -48 0 c-38 0 -57 7 -95 34 -26 19 -59 37 -72 40 -30 8 -30 10
-5 156 11 63 20 119 20 124 0 5 27 6 61 2 34 -3 79 -6 100 -6z m963 -25 c25
-4 46 -11 46 -15 0 -4 -18 -19 -40 -34 l-40 -26 -20 40 c-24 46 -25 54 -6 47
7 -3 34 -9 60 -12z m199 -54 c-9 -23 -97 -142 -127 -170 l-26 -24 -30 66 c-16
36 -31 70 -32 75 -2 6 22 28 52 49 54 38 56 39 112 30 46 -8 55 -13 51 -26z
m-210 -133 c15 -40 27 -78 27 -84 0 -18 -58 -67 -70 -59 -20 12 -55 -4 -73
-34 -55 -94 39 -162 126 -90 39 32 73 35 90 8 6 -9 7 -25 2 -35 -7 -17 -8 -17
-14 6 -10 36 -43 37 -83 1 -19 -16 -45 -32 -59 -36 -28 -6 -89 27 -89 49 0 25
-17 27 -52 6 l-34 -19 -35 119 -35 120 65 25 c36 14 95 41 131 60 36 19 67 34
70 35 3 0 18 -33 33 -72z m-1698 16 c33 -17 89 -42 125 -54 36 -13 66 -25 68
-26 4 -2 -49 -195 -55 -203 -3 -5 -122 75 -160 108 -13 11 -23 23 -23 28 0 5
-6 18 -14 28 -13 18 -16 17 -61 -30 -45 -48 -45 -48 -11 -6 27 34 33 47 25 58
-9 10 -6 28 11 73 13 34 25 59 29 58 3 -2 33 -17 66 -34z m1392 -125 c18 -60
43 -167 43 -184 0 -18 -69 -54 -183 -94 -49 -17 -90 -31 -92 -31 -2 0 -6 15
-8 33 -4 30 -4 29 -6 -8 -2 -49 -11 -85 -21 -85 -4 0 -10 33 -14 73 -10 110
-18 168 -23 163 -3 -3 3 -74 13 -159 9 -85 15 -161 11 -169 -4 -11 -36 -18
-119 -26 -63 -7 -133 -12 -156 -12 l-42 0 0 228 0 229 131 12 c72 7 133 10
136 7 2 -2 8 -26 13 -53 l9 -48 -2 55 -2 55 45 9 c25 5 88 19 140 32 52 12 99
22 104 20 5 -1 15 -22 23 -47z m-1052 6 c61 -14 122 -25 137 -25 15 0 29 -4
32 -8 2 -4 -2 -59 -11 -122 -22 -174 -17 -160 -60 -148 -58 15 -225 87 -249
106 l-22 17 25 103 c14 56 28 102 32 102 3 0 56 -11 116 -25z m265 -6 l35 -20
-49 6 c-55 6 -61 9 -51 24 9 16 25 13 65 -10z m69 -53 c8 -6 25 -33 37 -61 13
-27 24 -43 24 -35 0 8 -9 35 -20 59 -11 24 -20 45 -20 47 0 2 20 4 45 4 l45 0
0 -230 c0 -229 -12 -301 -25 -156 l-7 73 -67 7 c-36 4 -92 12 -124 18 l-58 11
5 36 c3 20 8 68 11 106 3 39 8 87 11 108 l6 38 61 -7 c34 -4 68 -12 76 -18z
m-729 11 c0 -1 -28 -29 -62 -62 l-61 -60 54 63 c45 52 69 73 69 59z m1710 -46
c0 -9 -24 -21 -42 -21 -6 0 -6 6 2 15 14 16 40 20 40 6z m-1640 -74 c0 -2 -17
-19 -37 -38 l-37 -34 30 37 c25 31 44 46 44 35z m-105 -36 c-12 -12 -124 -33
-136 -25 -5 3 -17 0 -28 -5 -14 -8 -22 -7 -32 6 -12 14 -12 16 1 11 8 -3 47 0
85 7 88 16 122 18 110 6z m1825 -42 c0 -20 4 -21 43 -15 39 5 40 5 23 -9 -36
-28 -86 -16 -86 21 0 13 5 24 10 24 6 0 10 -10 10 -21z m-1800 -3 c0 -2 -8
-10 -17 -17 -16 -13 -17 -12 -4 4 13 16 21 21 21 13z m1648 -8 c16 -16 15 -30
-2 -53 -13 -18 -14 -18 -9 8 6 32 -18 47 -44 26 -15 -13 -15 -12 -4 9 13 24
40 29 59 10z m-126 -31 c-9 -11 12 -31 105 -97 64 -46 111 -86 104 -88 -6 -2
-44 20 -84 49 -40 29 -89 64 -109 78 -21 13 -38 28 -38 33 0 12 24 48 29 43 2
-3 -1 -11 -7 -18z m-1422 -38 c-14 -6 -41 -12 -60 -14 -19 -2 -68 -8 -109 -14
-40 -6 -77 -8 -82 -5 -17 10 -9 21 14 18 12 -2 63 2 112 10 50 7 104 14 120
14 30 1 30 1 5 -9z m1422 -85 c76 -79 93 -107 79 -132 -9 -15 -10 -14 -11 8 0
18 -21 46 -70 95 -59 59 -84 95 -66 95 2 0 33 -30 68 -66z m293 46 c-3 -5 -35
-10 -70 -10 -35 0 -67 5 -70 10 -4 6 22 10 70 10 48 0 74 -4 70 -10z m-1609
-18 c44 -35 57 -92 29 -128 -14 -18 -14 -17 -5 10 8 22 7 36 -7 65 -15 29 -28
39 -68 53 l-50 16 40 1 c24 0 49 -6 61 -17z m-114 -14 c-7 -7 -12 -8 -12 -2 0
14 12 26 19 19 2 -3 -1 -11 -7 -17z m-82 -7 c-15 -28 -12 -87 5 -120 37 -72
116 -105 186 -78 47 19 41 1 -7 -19 -92 -39 -208 46 -206 151 0 39 15 85 28
85 2 0 0 -9 -6 -19z m306 -120 c-15 -28 -28 -51 -31 -51 -3 0 7 25 22 55 15
30 29 53 31 51 2 -2 -8 -27 -22 -55z m1230 -108 c43 4 47 4 29 -9 -26 -19 -62
-17 -99 5 -37 23 -158 156 -149 164 3 3 42 -33 88 -80 l82 -86 49 6z m-356
121 c0 -18 -48 -84 -61 -84 -5 0 -9 6 -9 14 0 12 -14 11 -85 -5 -99 -21 -106
-24 -99 -44 5 -11 16 -13 43 -9 l37 6 13 -64 c32 -159 32 -158 52 -158 10 0
19 -4 19 -10 0 -5 -11 -10 -25 -10 -26 0 -29 6 -43 89 -7 41 -10 45 -51 57
-78 23 -121 81 -121 162 l0 49 123 10 c194 15 207 15 207 -3z m-780 -24 c16
-16 18 -25 10 -40 -14 -25 -20 -26 -13 -1 3 13 -2 23 -16 30 -22 12 -29 31
-11 31 6 0 19 -9 30 -20z m437 -12 c-3 -8 -6 -5 -6 6 -1 11 2 17 5 13 3 -3 4
-12 1 -19z m-367 -98 c-18 -50 -34 -89 -36 -87 -2 2 10 45 27 96 17 51 33 90
36 87 3 -3 -10 -46 -27 -96z m839 85 c40 -20 66 -78 53 -119 l-10 -31 -1 42
c-1 59 -35 97 -87 97 -22 0 -48 -4 -58 -9 -14 -6 -17 -5 -12 4 19 30 74 38
115 16z m-1054 -55 c-9 -16 -18 -30 -21 -30 -2 0 2 14 11 30 9 17 18 30 21 30
2 0 -2 -13 -11 -30z m355 -133 c-6 -60 -9 -112 -5 -115 4 -4 44 -7 90 -7 56 0
81 -3 74 -10 -10 -10 -166 -12 -176 -2 -3 3 1 70 8 149 7 79 15 132 17 118 2
-14 -1 -74 -8 -133z m510 97 c0 -55 23 -98 68 -126 27 -17 44 -20 88 -15 31 3
52 2 49 -3 -10 -17 -76 -23 -115 -11 -42 13 -100 71 -100 101 0 23 -10 26 -28
8 -16 -16 -20 -10 -28 39 -6 40 -5 42 22 46 16 2 32 5 37 6 4 0 7 -20 7 -45z
m-805 -39 c6 -53 12 -69 33 -85 31 -25 22 -39 -11 -17 -20 13 -26 28 -31 74
-4 32 -9 66 -12 76 -3 9 -1 17 5 17 5 0 13 -29 16 -65z m99 43 c-7 -11 -64
-10 -64 1 0 5 15 9 34 8 19 0 33 -5 30 -9z m331 -2 c43 -18 59 -48 52 -99 -8
-59 -23 -64 -18 -6 4 61 -15 87 -71 95 -21 4 -38 10 -38 15 0 13 36 11 75 -5z
m-501 -77 c-6 -11 -44 8 -44 21 0 6 10 5 25 -2 13 -6 22 -15 19 -19z m177 -46
c-12 -20 -14 -14 -5 12 4 9 9 14 11 11 3 -2 0 -13 -6 -23z m126 -88 c12 -13
-47 2 -99 24 -75 32 -56 42 22 12 38 -15 73 -31 77 -36z"/>
<path d="M1321 2294 c0 -11 3 -14 6 -6 3 7 2 16 -1 19 -3 4 -6 -2 -5 -13z"/>
<path d="M1271 2094 c0 -11 3 -14 6 -6 3 7 2 16 -1 19 -3 4 -6 -2 -5 -13z"/>
<path d="M1240 2072 c0 -7 -7 -12 -15 -12 -8 0 -15 -4 -15 -10 0 -16 27 -11
34 6 4 9 4 19 1 22 -3 3 -5 0 -5 -6z"/>
<path d="M1262 2050 c0 -14 2 -19 5 -12 2 6 2 18 0 25 -3 6 -5 1 -5 -13z"/>
<path d="M1251 2004 c0 -11 3 -14 6 -6 3 7 2 16 -1 19 -3 4 -6 -2 -5 -13z"/>
<path d="M1242 1960 c0 -14 2 -19 5 -12 2 6 2 18 0 25 -3 6 -5 1 -5 -13z"/>
<path d="M1461 2094 c0 -11 3 -14 6 -6 3 7 2 16 -1 19 -3 4 -6 -2 -5 -13z"/>
<path d="M1182 1670 c0 -14 2 -19 5 -12 2 6 2 18 0 25 -3 6 -5 1 -5 -13z"/>
<path d="M1172 1620 c0 -14 2 -19 5 -12 2 6 2 18 0 25 -3 6 -5 1 -5 -13z"/>
<path d="M1620 1772 c0 -4 13 -16 30 -25 26 -16 29 -16 24 -2 -9 23 -54 46
-54 27z"/>
<path d="M1430 1712 c0 -15 28 -35 40 -27 5 3 10 11 10 16 0 6 -5 7 -10 4 -6
-4 -17 -1 -25 5 -9 7 -15 8 -15 2z"/>
<path d="M1824 1138 c-63 -58 -94 -114 -93 -168 0 -35 0 -34 13 11 15 57 43
96 106 149 47 40 61 60 41 60 -5 0 -35 -24 -67 -52z"/>
<path d="M1311 994 c0 -11 3 -14 6 -6 3 7 2 16 -1 19 -3 4 -6 -2 -5 -13z"/>
<path d="M1322 940 c0 -14 2 -19 5 -12 2 6 2 18 0 25 -3 6 -5 1 -5 -13z"/>
<path d="M1054 2645 c11 -8 25 -15 30 -15 6 0 2 7 -8 15 -11 8 -25 15 -30 15
-6 0 -2 -7 8 -15z"/>
<path d="M1671 2644 c-19 -8 -32 -17 -28 -20 5 -6 67 23 67 31 0 6 0 7 -39
-11z"/>
</g>
</svg>
